<?xml version="1.0" standalone="no"?>
<!DOCTYPE svg PUBLIC "-//W3C//DTD SVG 20010904//EN"
 "http://www.w3.org/TR/2001/REC-SVG-20010904/DTD/svg10.dtd">
<svg version="1.0" xmlns="http://www.w3.org/2000/svg"
 width="260.000000pt" height="260.000000pt" viewBox="0 0 260.000000 260.000000"
 preserveAspectRatio="xMidYMid meet">
<metadata>
Created by potrace 1.14, written by Peter Selinger 2001-2017
</metadata>
<g transform="translate(0.000000,260.000000) scale(0.100000,-0.100000)"
fill="#000000" stroke="none">
<path d="M785 2276 c-108 -22 -210 -79 -301 -170 -125 -125 -184 -263 -184
-432 0 -168 50 -283 175 -409 130 -131 236 -171 424 -162 117 5 170 23 275 93
l54 36 39 -44 c22 -24 72 -80 111 -125 135 -154 190 -187 313 -187 77 1 91 4
148 34 76 41 101 70 101 120 0 31 -7 44 -35 69 -44 39 -65 39 -132 1 -65 -37
-111 -39 -161 -5 -47 31 -115 112 -109 129 3 6 33 28 68 47 60 32 70 34 159
34 83 0 101 -3 145 -26 64 -34 150 -120 184 -184 24 -46 26 -60 26 -165 0
-102 -3 -120 -24 -160 -62 -119 -149 -198 -255 -233 -67 -23 -216 -22 -273 1
-139 57 -225 177 -240 335 -3 37 -6 67 -7 67 -71 14 -173 27 -178 23 -11 -6
-10 -141 2 -202 5 -28 25 -86 45 -128 45 -98 157 -212 256 -260 166 -82 365
-81 536 3 105 51 233 178 282 277 40 82 71 202 71 275 0 73 -27 185 -63 262
-42 89 -166 213 -260 259 -80 39 -235 74 -292 66 -111 -16 -210 -52 -287 -106
-14 -11 -33 -19 -41 -19 -9 0 -59 51 -111 114 -158 189 -208 221 -341 221 -76
0 -99 -4 -146 -26 -58 -28 -99 -72 -99 -109 0 -29 26 -77 49 -90 29 -15 71
-12 120 10 90 41 153 22 231 -71 l44 -52 -31 -26 c-81 -68 -242 -86 -344 -39
-160 73 -258 250 -228 412 24 136 116 259 238 319 63 30 72 32 181 32 106 0
119 -2 166 -27 28 -15 65 -39 83 -54 75 -63 131 -184 131 -284 l0 -57 87 -10
c49 -6 92 -9 97 -6 5 3 6 53 3 112 -8 160 -51 258 -166 371 -136 134 -331 187
-536 146z"/>
</g>
</svg>
